<mxfile host="app.diagrams.net" agent="Mozilla/5.0 (Windows NT 10.0; Win64; x64) AppleWebKit/537.36 (KHTML, like Gecko) Chrome/127.0.0.0 Safari/537.36" version="24.7.6">
  <diagram name="Page-1" id="jVVD3iXvpXkwuGn11mnk">
    <mxGraphModel dx="1114" dy="593" grid="1" gridSize="10" guides="1" tooltips="1" connect="1" arrows="1" fold="1" page="1" pageScale="1" pageWidth="850" pageHeight="1100" math="0" shadow="0">
      <root>
        <mxCell id="0" />
        <mxCell id="1" parent="0" />
        <mxCell id="889izTsw7A-g9PvbdUQ5-1" value="Persona" style="rounded=0;whiteSpace=wrap;html=1;" parent="1" vertex="1">
          <mxGeometry x="55" y="190" width="120" height="60" as="geometry" />
        </mxCell>
        <mxCell id="889izTsw7A-g9PvbdUQ5-2" value="NOMBRE" style="ellipse;whiteSpace=wrap;html=1;" parent="1" vertex="1">
          <mxGeometry x="270" y="180" width="120" height="80" as="geometry" />
        </mxCell>
        <mxCell id="889izTsw7A-g9PvbdUQ5-3" value="APELLIDO" style="ellipse;whiteSpace=wrap;html=1;" parent="1" vertex="1">
          <mxGeometry x="270" y="290" width="120" height="80" as="geometry" />
        </mxCell>
        <mxCell id="889izTsw7A-g9PvbdUQ5-6" value="&lt;u&gt;&lt;b&gt;ID&lt;/b&gt;&lt;/u&gt;&lt;div&gt;&lt;b&gt;&lt;u&gt;Clave primaria&lt;/u&gt;&lt;/b&gt;&lt;/div&gt;" style="ellipse;whiteSpace=wrap;html=1;" parent="1" vertex="1">
          <mxGeometry x="270" y="70" width="120" height="80" as="geometry" />
        </mxCell>
        <mxCell id="889izTsw7A-g9PvbdUQ5-8" value="" style="endArrow=none;html=1;rounded=0;exitX=1;exitY=0.5;exitDx=0;exitDy=0;entryX=0;entryY=0.5;entryDx=0;entryDy=0;" parent="1" source="889izTsw7A-g9PvbdUQ5-1" target="889izTsw7A-g9PvbdUQ5-2" edge="1">
          <mxGeometry width="50" height="50" relative="1" as="geometry">
            <mxPoint x="90" y="420" as="sourcePoint" />
            <mxPoint x="140" y="370" as="targetPoint" />
          </mxGeometry>
        </mxCell>
        <mxCell id="889izTsw7A-g9PvbdUQ5-9" value="" style="endArrow=none;html=1;rounded=0;exitX=1;exitY=0;exitDx=0;exitDy=0;entryX=0;entryY=0.5;entryDx=0;entryDy=0;" parent="1" source="889izTsw7A-g9PvbdUQ5-1" target="889izTsw7A-g9PvbdUQ5-6" edge="1">
          <mxGeometry width="50" height="50" relative="1" as="geometry">
            <mxPoint x="185" y="230" as="sourcePoint" />
            <mxPoint x="280" y="230" as="targetPoint" />
          </mxGeometry>
        </mxCell>
        <mxCell id="889izTsw7A-g9PvbdUQ5-10" value="" style="endArrow=none;html=1;rounded=0;entryX=0;entryY=0.375;entryDx=0;entryDy=0;exitX=1;exitY=1;exitDx=0;exitDy=0;entryPerimeter=0;" parent="1" source="889izTsw7A-g9PvbdUQ5-1" target="889izTsw7A-g9PvbdUQ5-3" edge="1">
          <mxGeometry width="50" height="50" relative="1" as="geometry">
            <mxPoint x="175" y="230" as="sourcePoint" />
            <mxPoint x="255" y="300" as="targetPoint" />
            <Array as="points" />
          </mxGeometry>
        </mxCell>
        <mxCell id="889izTsw7A-g9PvbdUQ5-13" value="" style="group" parent="1" vertex="1" connectable="0">
          <mxGeometry x="55" y="350" width="120" height="80" as="geometry" />
        </mxCell>
        <mxCell id="889izTsw7A-g9PvbdUQ5-11" value="" style="ellipse;whiteSpace=wrap;html=1;" parent="889izTsw7A-g9PvbdUQ5-13" vertex="1">
          <mxGeometry width="120" height="80" as="geometry" />
        </mxCell>
        <mxCell id="889izTsw7A-g9PvbdUQ5-12" value="&lt;div&gt;&lt;b&gt;Telefono&lt;/b&gt;&lt;/div&gt;Multivaluado" style="ellipse;whiteSpace=wrap;html=1;" parent="889izTsw7A-g9PvbdUQ5-13" vertex="1">
          <mxGeometry x="10" y="5" width="100" height="70" as="geometry" />
        </mxCell>
        <mxCell id="889izTsw7A-g9PvbdUQ5-14" value="" style="endArrow=none;html=1;rounded=0;entryX=0.5;entryY=0;entryDx=0;entryDy=0;exitX=0.5;exitY=1;exitDx=0;exitDy=0;" parent="1" source="889izTsw7A-g9PvbdUQ5-1" target="889izTsw7A-g9PvbdUQ5-11" edge="1">
          <mxGeometry width="50" height="50" relative="1" as="geometry">
            <mxPoint x="25" y="270" as="sourcePoint" />
            <mxPoint x="120" y="340" as="targetPoint" />
            <Array as="points" />
          </mxGeometry>
        </mxCell>
        <mxCell id="889izTsw7A-g9PvbdUQ5-16" value="&lt;b&gt;MASCOTA&lt;/b&gt;" style="rounded=0;whiteSpace=wrap;html=1;fillColor=#f8cecc;strokeColor=#b85450;" parent="1" vertex="1">
          <mxGeometry x="525" y="190" width="120" height="60" as="geometry" />
        </mxCell>
        <mxCell id="889izTsw7A-g9PvbdUQ5-17" value="ESPECIE" style="ellipse;whiteSpace=wrap;html=1;fillColor=#e1d5e7;strokeColor=#9673a6;" parent="1" vertex="1">
          <mxGeometry x="675" y="90" width="120" height="80" as="geometry" />
        </mxCell>
        <mxCell id="889izTsw7A-g9PvbdUQ5-18" value="" style="endArrow=none;html=1;rounded=0;entryX=0;entryY=0.5;entryDx=0;entryDy=0;exitX=1;exitY=0;exitDx=0;exitDy=0;" parent="1" source="889izTsw7A-g9PvbdUQ5-16" target="889izTsw7A-g9PvbdUQ5-17" edge="1">
          <mxGeometry width="50" height="50" relative="1" as="geometry">
            <mxPoint x="570" y="210" as="sourcePoint" />
            <mxPoint x="665" y="130" as="targetPoint" />
          </mxGeometry>
        </mxCell>
        <mxCell id="889izTsw7A-g9PvbdUQ5-19" value="NOMBRE" style="ellipse;whiteSpace=wrap;html=1;fillColor=#e1d5e7;strokeColor=#9673a6;" parent="1" vertex="1">
          <mxGeometry x="675" y="270" width="120" height="80" as="geometry" />
        </mxCell>
        <mxCell id="889izTsw7A-g9PvbdUQ5-20" value="" style="endArrow=none;html=1;rounded=0;exitX=1;exitY=1;exitDx=0;exitDy=0;entryX=0;entryY=0.5;entryDx=0;entryDy=0;" parent="1" source="889izTsw7A-g9PvbdUQ5-16" target="889izTsw7A-g9PvbdUQ5-19" edge="1">
          <mxGeometry width="50" height="50" relative="1" as="geometry">
            <mxPoint x="622" y="200" as="sourcePoint" />
            <mxPoint x="675" y="140" as="targetPoint" />
          </mxGeometry>
        </mxCell>
        <mxCell id="889izTsw7A-g9PvbdUQ5-22" value="&lt;u&gt;ID&lt;/u&gt;" style="ellipse;whiteSpace=wrap;html=1;fillColor=#e1d5e7;strokeColor=#9673a6;" parent="1" vertex="1">
          <mxGeometry x="675" y="180" width="120" height="80" as="geometry" />
        </mxCell>
        <mxCell id="889izTsw7A-g9PvbdUQ5-23" value="" style="endArrow=none;html=1;rounded=0;exitX=1;exitY=0.5;exitDx=0;exitDy=0;" parent="1" source="889izTsw7A-g9PvbdUQ5-16" target="889izTsw7A-g9PvbdUQ5-22" edge="1">
          <mxGeometry width="50" height="50" relative="1" as="geometry">
            <mxPoint x="655" y="200" as="sourcePoint" />
            <mxPoint x="685" y="150" as="targetPoint" />
          </mxGeometry>
        </mxCell>
        <mxCell id="889izTsw7A-g9PvbdUQ5-24" value="&lt;b&gt;COMPUTADOR&lt;/b&gt;" style="rounded=0;whiteSpace=wrap;html=1;fillColor=#dae8fc;strokeColor=#6c8ebf;" parent="1" vertex="1">
          <mxGeometry x="525" y="510" width="120" height="60" as="geometry" />
        </mxCell>
        <mxCell id="889izTsw7A-g9PvbdUQ5-25" value="MARCA" style="ellipse;whiteSpace=wrap;html=1;fillColor=#ffe6cc;strokeColor=#d79b00;" parent="1" vertex="1">
          <mxGeometry x="675" y="410" width="120" height="80" as="geometry" />
        </mxCell>
        <mxCell id="889izTsw7A-g9PvbdUQ5-26" value="" style="endArrow=none;html=1;rounded=0;entryX=0;entryY=0.5;entryDx=0;entryDy=0;exitX=1;exitY=0;exitDx=0;exitDy=0;" parent="1" source="889izTsw7A-g9PvbdUQ5-24" target="889izTsw7A-g9PvbdUQ5-25" edge="1">
          <mxGeometry width="50" height="50" relative="1" as="geometry">
            <mxPoint x="570" y="530" as="sourcePoint" />
            <mxPoint x="665" y="450" as="targetPoint" />
          </mxGeometry>
        </mxCell>
        <mxCell id="889izTsw7A-g9PvbdUQ5-27" value="COLOR" style="ellipse;whiteSpace=wrap;html=1;fillColor=#ffe6cc;strokeColor=#d79b00;" parent="1" vertex="1">
          <mxGeometry x="675" y="590" width="120" height="80" as="geometry" />
        </mxCell>
        <mxCell id="889izTsw7A-g9PvbdUQ5-28" value="" style="endArrow=none;html=1;rounded=0;exitX=1;exitY=1;exitDx=0;exitDy=0;entryX=0;entryY=0.5;entryDx=0;entryDy=0;" parent="1" source="889izTsw7A-g9PvbdUQ5-24" target="889izTsw7A-g9PvbdUQ5-27" edge="1">
          <mxGeometry width="50" height="50" relative="1" as="geometry">
            <mxPoint x="622" y="520" as="sourcePoint" />
            <mxPoint x="675" y="460" as="targetPoint" />
          </mxGeometry>
        </mxCell>
        <mxCell id="889izTsw7A-g9PvbdUQ5-29" value="&lt;u&gt;NUM_SERIE&lt;/u&gt;&lt;div&gt;&lt;u&gt;ID&lt;/u&gt;&lt;/div&gt;" style="ellipse;whiteSpace=wrap;html=1;fillColor=#ffe6cc;strokeColor=#d79b00;" parent="1" vertex="1">
          <mxGeometry x="675" y="500" width="120" height="80" as="geometry" />
        </mxCell>
        <mxCell id="889izTsw7A-g9PvbdUQ5-30" value="" style="endArrow=none;html=1;rounded=0;exitX=1;exitY=0.5;exitDx=0;exitDy=0;" parent="1" source="889izTsw7A-g9PvbdUQ5-24" target="889izTsw7A-g9PvbdUQ5-29" edge="1">
          <mxGeometry width="50" height="50" relative="1" as="geometry">
            <mxPoint x="655" y="520" as="sourcePoint" />
            <mxPoint x="685" y="470" as="targetPoint" />
          </mxGeometry>
        </mxCell>
        <mxCell id="889izTsw7A-g9PvbdUQ5-31" value="&lt;b&gt;APRENDIZ&lt;/b&gt;" style="rounded=0;whiteSpace=wrap;html=1;fillColor=#fff2cc;strokeColor=#d6b656;" parent="1" vertex="1">
          <mxGeometry x="55" y="510" width="120" height="60" as="geometry" />
        </mxCell>
        <mxCell id="889izTsw7A-g9PvbdUQ5-32" value="NOMBRE" style="ellipse;whiteSpace=wrap;html=1;fillColor=#d5e8d4;strokeColor=#82b366;" parent="1" vertex="1">
          <mxGeometry x="205" y="410" width="120" height="80" as="geometry" />
        </mxCell>
        <mxCell id="889izTsw7A-g9PvbdUQ5-33" value="" style="endArrow=none;html=1;rounded=0;entryX=0;entryY=0.5;entryDx=0;entryDy=0;exitX=1;exitY=0;exitDx=0;exitDy=0;" parent="1" source="889izTsw7A-g9PvbdUQ5-31" target="889izTsw7A-g9PvbdUQ5-32" edge="1">
          <mxGeometry width="50" height="50" relative="1" as="geometry">
            <mxPoint x="100" y="530" as="sourcePoint" />
            <mxPoint x="195" y="450" as="targetPoint" />
          </mxGeometry>
        </mxCell>
        <mxCell id="889izTsw7A-g9PvbdUQ5-34" value="PROGRAMA" style="ellipse;whiteSpace=wrap;html=1;fillColor=#d5e8d4;strokeColor=#82b366;" parent="1" vertex="1">
          <mxGeometry x="205" y="590" width="120" height="80" as="geometry" />
        </mxCell>
        <mxCell id="889izTsw7A-g9PvbdUQ5-35" value="" style="endArrow=none;html=1;rounded=0;exitX=1;exitY=1;exitDx=0;exitDy=0;entryX=0;entryY=0.5;entryDx=0;entryDy=0;" parent="1" source="889izTsw7A-g9PvbdUQ5-31" target="889izTsw7A-g9PvbdUQ5-34" edge="1">
          <mxGeometry width="50" height="50" relative="1" as="geometry">
            <mxPoint x="152" y="520" as="sourcePoint" />
            <mxPoint x="205" y="460" as="targetPoint" />
          </mxGeometry>
        </mxCell>
        <mxCell id="889izTsw7A-g9PvbdUQ5-36" value="&lt;u&gt;CC.ID&lt;/u&gt;" style="ellipse;whiteSpace=wrap;html=1;fillColor=#d5e8d4;strokeColor=#82b366;" parent="1" vertex="1">
          <mxGeometry x="205" y="500" width="120" height="80" as="geometry" />
        </mxCell>
        <mxCell id="889izTsw7A-g9PvbdUQ5-37" value="" style="endArrow=none;html=1;rounded=0;exitX=1;exitY=0.5;exitDx=0;exitDy=0;" parent="1" source="889izTsw7A-g9PvbdUQ5-31" target="889izTsw7A-g9PvbdUQ5-36" edge="1">
          <mxGeometry width="50" height="50" relative="1" as="geometry">
            <mxPoint x="185" y="520" as="sourcePoint" />
            <mxPoint x="215" y="470" as="targetPoint" />
          </mxGeometry>
        </mxCell>
        <mxCell id="889izTsw7A-g9PvbdUQ5-38" value="&lt;b&gt;MONITOR&lt;/b&gt;" style="rounded=0;whiteSpace=wrap;html=1;fillColor=#d5e8d4;strokeColor=#82b366;" parent="1" vertex="1">
          <mxGeometry x="55" y="820" width="120" height="60" as="geometry" />
        </mxCell>
        <mxCell id="889izTsw7A-g9PvbdUQ5-39" value="TAMAÑO&amp;nbsp;" style="ellipse;whiteSpace=wrap;html=1;fillColor=#dae8fc;strokeColor=#6c8ebf;" parent="1" vertex="1">
          <mxGeometry x="205" y="720" width="120" height="80" as="geometry" />
        </mxCell>
        <mxCell id="889izTsw7A-g9PvbdUQ5-40" value="" style="endArrow=none;html=1;rounded=0;entryX=0;entryY=0.5;entryDx=0;entryDy=0;exitX=1;exitY=0;exitDx=0;exitDy=0;" parent="1" source="889izTsw7A-g9PvbdUQ5-38" target="889izTsw7A-g9PvbdUQ5-39" edge="1">
          <mxGeometry width="50" height="50" relative="1" as="geometry">
            <mxPoint x="100" y="840" as="sourcePoint" />
            <mxPoint x="195" y="760" as="targetPoint" />
          </mxGeometry>
        </mxCell>
        <mxCell id="889izTsw7A-g9PvbdUQ5-41" value="TIPO" style="ellipse;whiteSpace=wrap;html=1;fillColor=#dae8fc;strokeColor=#6c8ebf;" parent="1" vertex="1">
          <mxGeometry x="205" y="900" width="120" height="80" as="geometry" />
        </mxCell>
        <mxCell id="889izTsw7A-g9PvbdUQ5-42" value="" style="endArrow=none;html=1;rounded=0;exitX=1;exitY=1;exitDx=0;exitDy=0;entryX=0;entryY=0.5;entryDx=0;entryDy=0;" parent="1" source="889izTsw7A-g9PvbdUQ5-38" target="889izTsw7A-g9PvbdUQ5-41" edge="1">
          <mxGeometry width="50" height="50" relative="1" as="geometry">
            <mxPoint x="152" y="830" as="sourcePoint" />
            <mxPoint x="205" y="770" as="targetPoint" />
          </mxGeometry>
        </mxCell>
        <mxCell id="889izTsw7A-g9PvbdUQ5-43" value="&lt;u&gt;NUM_SERIE&lt;/u&gt;&lt;div&gt;&lt;u&gt;ID&lt;/u&gt;&lt;/div&gt;" style="ellipse;whiteSpace=wrap;html=1;fillColor=#dae8fc;strokeColor=#6c8ebf;" parent="1" vertex="1">
          <mxGeometry x="205" y="810" width="120" height="80" as="geometry" />
        </mxCell>
        <mxCell id="889izTsw7A-g9PvbdUQ5-44" value="" style="endArrow=none;html=1;rounded=0;exitX=1;exitY=0.5;exitDx=0;exitDy=0;" parent="1" source="889izTsw7A-g9PvbdUQ5-38" target="889izTsw7A-g9PvbdUQ5-43" edge="1">
          <mxGeometry width="50" height="50" relative="1" as="geometry">
            <mxPoint x="185" y="830" as="sourcePoint" />
            <mxPoint x="215" y="780" as="targetPoint" />
          </mxGeometry>
        </mxCell>
        <mxCell id="889izTsw7A-g9PvbdUQ5-45" value="&lt;b&gt;VEHICULO&lt;/b&gt;" style="rounded=0;whiteSpace=wrap;html=1;fillColor=#f5f5f5;strokeColor=#666666;fontColor=#333333;" parent="1" vertex="1">
          <mxGeometry x="525" y="820" width="120" height="60" as="geometry" />
        </mxCell>
        <mxCell id="889izTsw7A-g9PvbdUQ5-46" value="MARCA" style="ellipse;whiteSpace=wrap;html=1;" parent="1" vertex="1">
          <mxGeometry x="675" y="720" width="120" height="80" as="geometry" />
        </mxCell>
        <mxCell id="889izTsw7A-g9PvbdUQ5-47" value="" style="endArrow=none;html=1;rounded=0;entryX=0;entryY=0.5;entryDx=0;entryDy=0;exitX=1;exitY=0;exitDx=0;exitDy=0;" parent="1" source="889izTsw7A-g9PvbdUQ5-45" target="889izTsw7A-g9PvbdUQ5-46" edge="1">
          <mxGeometry width="50" height="50" relative="1" as="geometry">
            <mxPoint x="570" y="840" as="sourcePoint" />
            <mxPoint x="665" y="760" as="targetPoint" />
          </mxGeometry>
        </mxCell>
        <mxCell id="889izTsw7A-g9PvbdUQ5-48" value="COLOR" style="ellipse;whiteSpace=wrap;html=1;" parent="1" vertex="1">
          <mxGeometry x="675" y="900" width="120" height="80" as="geometry" />
        </mxCell>
        <mxCell id="889izTsw7A-g9PvbdUQ5-49" value="" style="endArrow=none;html=1;rounded=0;exitX=1;exitY=1;exitDx=0;exitDy=0;entryX=0;entryY=0.5;entryDx=0;entryDy=0;" parent="1" source="889izTsw7A-g9PvbdUQ5-45" target="889izTsw7A-g9PvbdUQ5-48" edge="1">
          <mxGeometry width="50" height="50" relative="1" as="geometry">
            <mxPoint x="622" y="830" as="sourcePoint" />
            <mxPoint x="675" y="770" as="targetPoint" />
          </mxGeometry>
        </mxCell>
        <mxCell id="889izTsw7A-g9PvbdUQ5-50" value="&lt;u&gt;PLACA, ID&lt;/u&gt;" style="ellipse;whiteSpace=wrap;html=1;" parent="1" vertex="1">
          <mxGeometry x="675" y="810" width="120" height="80" as="geometry" />
        </mxCell>
        <mxCell id="889izTsw7A-g9PvbdUQ5-51" value="" style="endArrow=none;html=1;rounded=0;exitX=1;exitY=0.5;exitDx=0;exitDy=0;" parent="1" source="889izTsw7A-g9PvbdUQ5-45" target="889izTsw7A-g9PvbdUQ5-50" edge="1">
          <mxGeometry width="50" height="50" relative="1" as="geometry">
            <mxPoint x="655" y="830" as="sourcePoint" />
            <mxPoint x="685" y="780" as="targetPoint" />
          </mxGeometry>
        </mxCell>
      </root>
    </mxGraphModel>
  </diagram>
</mxfile>
